<svg id="bold" height="512" viewBox="0 0 24 24" width="512" xmlns="http://www.w3.org/2000/svg"><path d="m21.25 17.5h-15c-.414 0-.75-.336-.75-.75s.337-.75.75-.75h1.499.001 13.5c.354 0 .661-.249.734-.596l2-9.5c.046-.221-.009-.451-.151-.627-.143-.175-.357-.277-.583-.277h-16.891l-.38-1.806c-.266-1.26-1.392-2.178-2.679-2.183l-2.546-.011c-.002 0-.003 0-.004 0-.412 0-.748.333-.75.747s.333.751.747.753l2.546.011c.585.002 1.097.42 1.218.992l.505 2.401 1.81 8.596h-.576c-1.241 0-2.25 1.009-2.25 2.25s1.009 2.25 2.25 2.25h15c.414 0 .75-.336.75-.75s-.336-.75-.75-.75z"/><circle cx="10.5" cy="21.5" r="1.5"/><circle cx="18.5" cy="21.5" r="1.5"/></svg>